<?xml version="1.0" standalone="no"?>
<!DOCTYPE svg PUBLIC "-//W3C//DTD SVG 20010904//EN"
 "http://www.w3.org/TR/2001/REC-SVG-20010904/DTD/svg10.dtd">
<svg version="1.0" xmlns="http://www.w3.org/2000/svg"
 width="512.000000pt" height="512.000000pt" viewBox="0 0 512.000000 512.000000"
 preserveAspectRatio="xMidYMid meet">
<metadata>
Created by potrace 1.11, written by Peter Selinger 2001-2013
</metadata>
<g transform="translate(0.000000,512.000000) scale(0.100000,-0.100000)"
fill="#000000" stroke="none">
<path d="M0 2560 l0 -2560 2560 0 2560 0 0 2560 0 2560 -2560 0 -2560 0 0
-2560z m1375 1061 l870 -528 3 -189 2 -189 -869 -527 c-478 -291 -871 -528
-875 -528 -3 0 -5 111 -4 248 l3 247 719 367 c395 201 722 370 728 376 6 6
-263 148 -721 381 l-731 373 0 249 c0 137 1 249 3 249 1 0 394 -238 872 -529z
m3245 -2496 l0 -155 -1060 0 -1060 0 0 155 0 155 1060 0 1060 0 0 -155z"/>
</g>
</svg>
